<svg width="108" height="108" viewBox="0 0 108 108" fill="none" xmlns="http://www.w3.org/2000/svg">
<path fill-rule="evenodd" clip-rule="evenodd" d="M37.7902 35.9449C37.7902 33.12 40.0951 30.8299 42.9384 30.8299H65.7194C68.4335 30.8299 70.6337 33.0159 70.6337 35.7124V55.9259C70.6337 58.2371 68.7478 60.1108 66.4215 60.1108H44.4492C42.0753 60.1108 39.7907 60.7235 37.7902 61.8351V35.9449ZM32.1739 35.9449V68.0611L32.1521 68.1415C30.1725 75.4347 35.7551 82.5877 43.3575 82.4992L53.5623 82.3804C61.2083 82.2914 66.8099 75.1982 65.0779 67.7987L59.6076 69.0626C60.5267 72.9894 57.554 76.7536 53.4965 76.8008L43.2917 76.9196C39.4129 76.9648 36.5647 73.3153 37.5746 69.5943L37.5967 69.513C38.5435 67.97 39.9752 66.8146 41.6343 66.1971V74.4572L46.4582 70.4025L51.4429 74.3012V65.6907H66.4215C71.8496 65.6907 76.25 61.3188 76.25 55.9259V35.7124C76.25 29.9342 71.5353 25.25 65.7194 25.25H42.9384C36.9933 25.25 32.1739 30.0382 32.1739 35.9449Z" fill="#9258FF"/>
</svg>
